<?xml version="1.0" encoding="UTF-8" standalone="no"?>
<!DOCTYPE svg PUBLIC "-//W3C//DTD SVG 1.1//EN"
 "http://www.w3.org/Graphics/SVG/1.1/DTD/svg11.dtd">
<!-- Generated by graphviz version 2.38.0 (20140413.2041)
 -->
<!-- Title: tfgraph Pages: 1 -->
<svg width="640pt" height="332pt"
 viewBox="0.00 0.00 639.77 332.00" xmlns="http://www.w3.org/2000/svg" xmlns:xlink="http://www.w3.org/1999/xlink">
<g id="graph0" class="graph" transform="scale(1 1) rotate(0) translate(4 328)">
<title>tfgraph</title>
<polygon fill="white" stroke="none" points="-4,4 -4,-328 635.773,-328 635.773,4 -4,4"/>
<!-- [root] aws_subnet.public&#45;2a -->
<g id="node1" class="node"><title>[root] aws_subnet.public&#45;2a</title>
<polygon fill="none" stroke="black" points="272.232,-180 134.232,-180 134.232,-144 272.232,-144 272.232,-180"/>
<text text-anchor="middle" x="203.232" y="-158.3" font-family="Times New Roman,serif" font-size="14.00">aws_subnet.public&#45;2a</text>
</g>
<!-- [root] aws_vpc.stage -->
<g id="node2" class="node"><title>[root] aws_vpc.stage</title>
<polygon fill="none" stroke="black" points="409.732,-108 310.732,-108 310.732,-72 409.732,-72 409.732,-108"/>
<text text-anchor="middle" x="360.232" y="-86.3" font-family="Times New Roman,serif" font-size="14.00">aws_vpc.stage</text>
</g>
<!-- [root] aws_subnet.public&#45;2a&#45;&gt;[root] aws_vpc.stage -->
<g id="edge1" class="edge"><title>[root] aws_subnet.public&#45;2a&#45;&gt;[root] aws_vpc.stage</title>
<path fill="none" stroke="black" d="M241.639,-143.876C263.102,-134.307 290.031,-122.3 312.801,-112.148"/>
<polygon fill="black" stroke="black" points="314.243,-115.337 321.951,-108.068 311.392,-108.944 314.243,-115.337"/>
</g>
<!-- [root] provider.aws -->
<g id="node5" class="node"><title>[root] provider.aws</title>
<polygon fill="none" stroke="black" points="360.232,-36 278.622,-18 360.232,-3.55271e-015 441.843,-18 360.232,-36"/>
<text text-anchor="middle" x="360.232" y="-14.3" font-family="Times New Roman,serif" font-size="14.00">provider.aws</text>
</g>
<!-- [root] aws_vpc.stage&#45;&gt;[root] provider.aws -->
<g id="edge4" class="edge"><title>[root] aws_vpc.stage&#45;&gt;[root] provider.aws</title>
<path fill="none" stroke="black" d="M360.232,-71.6966C360.232,-63.9827 360.232,-54.7125 360.232,-46.1124"/>
<polygon fill="black" stroke="black" points="363.733,-46.1043 360.232,-36.1043 356.733,-46.1044 363.733,-46.1043"/>
</g>
<!-- [root] aws_subnet.public&#45;2b -->
<g id="node3" class="node"><title>[root] aws_subnet.public&#45;2b</title>
<polygon fill="none" stroke="black" points="430.232,-180 290.232,-180 290.232,-144 430.232,-144 430.232,-180"/>
<text text-anchor="middle" x="360.232" y="-158.3" font-family="Times New Roman,serif" font-size="14.00">aws_subnet.public&#45;2b</text>
</g>
<!-- [root] aws_subnet.public&#45;2b&#45;&gt;[root] aws_vpc.stage -->
<g id="edge2" class="edge"><title>[root] aws_subnet.public&#45;2b&#45;&gt;[root] aws_vpc.stage</title>
<path fill="none" stroke="black" d="M360.232,-143.697C360.232,-135.983 360.232,-126.712 360.232,-118.112"/>
<polygon fill="black" stroke="black" points="363.733,-118.104 360.232,-108.104 356.733,-118.104 363.733,-118.104"/>
</g>
<!-- [root] aws_subnet.public&#45;2c -->
<g id="node4" class="node"><title>[root] aws_subnet.public&#45;2c</title>
<polygon fill="none" stroke="black" points="587.732,-180 448.732,-180 448.732,-144 587.732,-144 587.732,-180"/>
<text text-anchor="middle" x="518.232" y="-158.3" font-family="Times New Roman,serif" font-size="14.00">aws_subnet.public&#45;2c</text>
</g>
<!-- [root] aws_subnet.public&#45;2c&#45;&gt;[root] aws_vpc.stage -->
<g id="edge3" class="edge"><title>[root] aws_subnet.public&#45;2c&#45;&gt;[root] aws_vpc.stage</title>
<path fill="none" stroke="black" d="M479.581,-143.876C457.982,-134.307 430.881,-122.3 407.966,-112.148"/>
<polygon fill="black" stroke="black" points="409.319,-108.919 398.758,-108.068 406.483,-115.319 409.319,-108.919"/>
</g>
<!-- [root] meta.count&#45;boundary (count boundary fixup) -->
<g id="node6" class="node"><title>[root] meta.count&#45;boundary (count boundary fixup)</title>
<ellipse fill="none" stroke="black" cx="198.232" cy="-234" rx="198.465" ry="18"/>
<text text-anchor="middle" x="198.232" y="-230.3" font-family="Times New Roman,serif" font-size="14.00">[root] meta.count&#45;boundary (count boundary fixup)</text>
</g>
<!-- [root] meta.count&#45;boundary (count boundary fixup)&#45;&gt;[root] aws_subnet.public&#45;2a -->
<g id="edge5" class="edge"><title>[root] meta.count&#45;boundary (count boundary fixup)&#45;&gt;[root] aws_subnet.public&#45;2a</title>
<path fill="none" stroke="black" d="M199.468,-215.697C200.019,-207.983 200.682,-198.712 201.296,-190.112"/>
<polygon fill="black" stroke="black" points="204.789,-190.328 202.011,-180.104 197.807,-189.83 204.789,-190.328"/>
</g>
<!-- [root] meta.count&#45;boundary (count boundary fixup)&#45;&gt;[root] aws_subnet.public&#45;2b -->
<g id="edge6" class="edge"><title>[root] meta.count&#45;boundary (count boundary fixup)&#45;&gt;[root] aws_subnet.public&#45;2b</title>
<path fill="none" stroke="black" d="M237.035,-216.233C259.347,-206.592 287.586,-194.391 311.397,-184.102"/>
<polygon fill="black" stroke="black" points="312.829,-187.296 320.621,-180.116 310.053,-180.87 312.829,-187.296"/>
</g>
<!-- [root] meta.count&#45;boundary (count boundary fixup)&#45;&gt;[root] aws_subnet.public&#45;2c -->
<g id="edge7" class="edge"><title>[root] meta.count&#45;boundary (count boundary fixup)&#45;&gt;[root] aws_subnet.public&#45;2c</title>
<path fill="none" stroke="black" d="M270.446,-217.203C320.494,-206.255 387.139,-191.677 438.706,-180.396"/>
<polygon fill="black" stroke="black" points="439.459,-183.814 448.48,-178.258 437.963,-176.976 439.459,-183.814"/>
</g>
<!-- [root] provider.aws (close) -->
<g id="node7" class="node"><title>[root] provider.aws (close)</title>
<ellipse fill="none" stroke="black" cx="523.232" cy="-234" rx="108.581" ry="18"/>
<text text-anchor="middle" x="523.232" y="-230.3" font-family="Times New Roman,serif" font-size="14.00">[root] provider.aws (close)</text>
</g>
<!-- [root] provider.aws (close)&#45;&gt;[root] aws_subnet.public&#45;2a -->
<g id="edge8" class="edge"><title>[root] provider.aws (close)&#45;&gt;[root] aws_subnet.public&#45;2a</title>
<path fill="none" stroke="black" d="M460.393,-219.254C409.415,-208.103 337.261,-192.319 282.351,-180.307"/>
<polygon fill="black" stroke="black" points="282.825,-176.828 272.308,-178.11 281.329,-183.666 282.825,-176.828"/>
</g>
<!-- [root] provider.aws (close)&#45;&gt;[root] aws_subnet.public&#45;2b -->
<g id="edge9" class="edge"><title>[root] provider.aws (close)&#45;&gt;[root] aws_subnet.public&#45;2b</title>
<path fill="none" stroke="black" d="M485.837,-216.941C463.184,-207.213 434.027,-194.691 409.508,-184.161"/>
<polygon fill="black" stroke="black" points="410.584,-180.814 400.015,-180.084 407.822,-187.246 410.584,-180.814"/>
</g>
<!-- [root] provider.aws (close)&#45;&gt;[root] aws_subnet.public&#45;2c -->
<g id="edge10" class="edge"><title>[root] provider.aws (close)&#45;&gt;[root] aws_subnet.public&#45;2c</title>
<path fill="none" stroke="black" d="M521.996,-215.697C521.445,-207.983 520.783,-198.712 520.169,-190.112"/>
<polygon fill="black" stroke="black" points="523.658,-189.83 519.454,-180.104 516.676,-190.328 523.658,-189.83"/>
</g>
<!-- [root] root -->
<g id="node8" class="node"><title>[root] root</title>
<ellipse fill="none" stroke="black" cx="360.232" cy="-306" rx="49.2915" ry="18"/>
<text text-anchor="middle" x="360.232" y="-302.3" font-family="Times New Roman,serif" font-size="14.00">[root] root</text>
</g>
<!-- [root] root&#45;&gt;[root] meta.count&#45;boundary (count boundary fixup) -->
<g id="edge11" class="edge"><title>[root] root&#45;&gt;[root] meta.count&#45;boundary (count boundary fixup)</title>
<path fill="none" stroke="black" d="M329.38,-291.669C305.894,-281.52 273.134,-267.365 246.232,-255.741"/>
<polygon fill="black" stroke="black" points="247.554,-252.499 236.986,-251.745 244.777,-258.925 247.554,-252.499"/>
</g>
<!-- [root] root&#45;&gt;[root] provider.aws (close) -->
<g id="edge12" class="edge"><title>[root] root&#45;&gt;[root] provider.aws (close)</title>
<path fill="none" stroke="black" d="M390.891,-291.834C415.062,-281.453 449.167,-266.807 476.701,-254.983"/>
<polygon fill="black" stroke="black" points="478.331,-258.092 486.138,-250.93 475.569,-251.66 478.331,-258.092"/>
</g>
</g>
</svg>
